<svg xmlns="http://www.w3.org/2000/svg" width="21.08" height="21.081">
    <path d="M20.067 15.133a3.489 3.489 0 0 0-3.849-.734 1.317 1.317 0 0 0-.161-.2L11.705 9.85l5.017-5.017a1.277 1.277 0 0 0 .232.022 1.424 1.424 0 0 0 1.007-.433l1.03-1.03a.552.552 0 0 0 .13-.22.5.5 0 0 0-.141-.515l-1.128-1.129a.521.521 0 0 0-.374-.165.546.546 0 0 0-.369.154l-1.028 1.026a1.391 1.391 0 0 0-.413 1.241L10.654 8.8 6.7 4.845A3.487 3.487 0 0 0 2.572.123.4.4 0 0 0 2.3.4a.385.385 0 0 0 .11.377s1.229 1.238 1.64 1.649a.254.254 0 0 1 .037.183v.027a6.94 6.94 0 0 1-.2 1.242 6.846 6.846 0 0 1-1.261.2h-.041A.262.262 0 0 1 2.391 4C1.962 3.575.782 2.4.782 2.4a.4.4 0 0 0-.287-.128.391.391 0 0 0-.367.3 3.487 3.487 0 0 0 4.724 4.122l3.954 3.954-2.174 2.173a1.378 1.378 0 0 0-1.57.266l-.492.492h-.082a1.367 1.367 0 0 0-.973.4L.784 16.707a1.378 1.378 0 0 0 0 1.947L1.85 19.72a1.38 1.38 0 0 0 1.947 0l2.727-2.727a1.372 1.372 0 0 0 .4-1.056l.492-.492a1.378 1.378 0 0 0 .266-1.57L9.857 11.7l4.352 4.352a1.319 1.319 0 0 0 .2.162 3.484 3.484 0 0 0 3.2 4.868 3.5 3.5 0 0 0 .919-.123.4.4 0 0 0 .273-.275.385.385 0 0 0-.11-.376s-1.229-1.238-1.64-1.65a.255.255 0 0 1-.037-.183v-.027a6.949 6.949 0 0 1 .2-1.242 6.826 6.826 0 0 1 1.261-.2h.041a.262.262 0 0 1 .189.08c.428.428 1.608 1.6 1.608 1.6a.4.4 0 0 0 .287.128.39.39 0 0 0 .367-.3 3.5 3.5 0 0 0-.9-3.381z" transform="translate(-.007)" style="fill:#fff"/>
</svg>
