<svg xmlns="http://www.w3.org/2000/svg" width="22" height="22">
    <path data-name="패스 605" d="M965.355 1069.794a11 11 0 0 0-6.983 19.5v-.036a5.847 5.847 0 0 1 5.8-5.634h.077c-.107-.031-.217-.054-.319-.093a3.786 3.786 0 0 1-.352-.167c-.1-.053-.212-.1-.312-.163a3.6 3.6 0 0 1-.311-.221c-.094-.071-.188-.142-.275-.22s-.175-.171-.258-.261-.162-.183-.237-.28-.138-.189-.2-.288-.13-.221-.188-.336-.1-.2-.144-.308a3.8 3.8 0 0 1-.126-.382c-.031-.107-.065-.211-.087-.321a3.9 3.9 0 0 1-.054-.434c-.009-.1-.025-.2-.027-.309v-.054c0-.125.026-.242.037-.364s.006-.222.026-.335c0-.015.01-.029.013-.044a3.886 3.886 0 0 1 .145-.5c.028-.086.047-.177.081-.259a3.829 3.829 0 0 1 .239-.459c.043-.076.077-.158.125-.231a4.15 4.15 0 0 1 .338-.421c.05-.056.091-.12.143-.173a4.051 4.051 0 0 1 .465-.393c.04-.03.076-.067.117-.1a4 4 0 0 1 .557-.313c.039-.018.073-.043.113-.06a3.852 3.852 0 0 1 .554-.183c.064-.018.124-.044.19-.059a4.086 4.086 0 0 1 .513-.063c.094-.008.185-.026.281-.028.024 0 .047-.007.071-.007a3.977 3.977 0 0 1 .516.054c.063.008.124 0 .187.014a.186.186 0 0 0 .025.007 4.009 4.009 0 0 1 .628.18c.046.017.1.026.142.045a4 4 0 0 1 .544.283c.049.029.1.051.151.082a4.133 4.133 0 0 1 .452.363c.047.042.1.077.148.122a3.99 3.99 0 0 1 .37.438c.039.051.086.1.122.148a4.092 4.092 0 0 1 .261.466c.036.071.082.137.114.21a4.174 4.174 0 0 1 .138.419c.034.11.077.217.1.331s.028.233.043.349a3.971 3.971 0 0 1 .044.451c0 .016.005.031.005.047a4.022 4.022 0 0 1-.061.662v.044a3.956 3.956 0 0 1-.177.645c-.018.052-.044.1-.065.151a4.056 4.056 0 0 1-.211.447c-.031.056-.067.107-.1.161a4.093 4.093 0 0 1-.268.382c-.041.051-.084.1-.128.149a4.384 4.384 0 0 1-.326.328c-.048.043-.1.085-.146.125a3.878 3.878 0 0 1-.394.28c-.048.031-.1.062-.144.091a3.9 3.9 0 0 1-.51.242c-.029.012-.057.027-.086.037-.079.03-.16.052-.241.076h.042a5.85 5.85 0 0 1 5.806 5.634v.036a11 11 0 0 0-6.991-19.5z" transform="translate(-954.359 -1068.396)" style="fill:#fff"/>
</svg>
